<svg width="163" height="58" viewBox="0 0 163 58" fill="none" xmlns="http://www.w3.org/2000/svg">
<path d="M27.9996 29.1072L21.8253 18.7087L27.6493 8.11009L39.6476 7.90989L45.8219 18.3083L39.9979 28.907L27.9996 29.1072Z" fill="#606060" stroke="black" stroke-width="5.33333" stroke-linecap="round" stroke-linejoin="round"/>
<path d="M28.3499 50.1042L22.1756 39.7058L27.9996 29.1072L39.9979 28.907L46.1723 39.3054L40.3483 49.904L28.3499 50.1042Z" fill="#606060" stroke="black" stroke-width="5.33333" stroke-linecap="round" stroke-linejoin="round"/>
<path d="M10.1773 39.906L4.00293 29.5076L9.82692 18.9089L21.8253 18.7087L27.9996 29.1072L22.1756 39.7058L10.1773 39.906Z" fill="#606060" stroke="black" stroke-width="5.33333" stroke-linecap="round" stroke-linejoin="round"/>
<path d="M67.918 37L65.9961 31.8438H58.5781L56.7031 37H55.0391L61.5781 19.7617H63.0781L69.582 37H67.918ZM62.3047 21.4844H62.2578C62.2109 21.7422 62.1445 22 62.0586 22.2578C61.9805 22.5078 60.9922 25.2461 59.0938 30.4727H65.4922L62.6562 22.7266C62.5 22.3047 62.3828 21.8906 62.3047 21.4844ZM72.1133 37V18.7773H73.543V37H72.1133ZM78.207 21.5781C77.9258 21.5781 77.6797 21.4805 77.4688 21.2852C77.2656 21.082 77.1641 20.8242 77.1641 20.5117C77.1641 20.2383 77.2617 20 77.457 19.7969C77.6602 19.5859 77.9102 19.4805 78.207 19.4805C78.5039 19.4805 78.7539 19.5781 78.957 19.7734C79.168 19.9609 79.2734 20.207 79.2734 20.5117C79.2734 20.8086 79.168 21.0625 78.957 21.2734C78.7539 21.4766 78.5039 21.5781 78.207 21.5781ZM77.5039 37V24.6836H78.9336V37H77.5039Z" fill="#606060"/>
<path d="M82.0273 36.1406C82.0273 35.8346 82.1348 35.5775 82.3496 35.3691C82.5645 35.1543 82.8151 35.0469 83.1016 35.0469C83.388 35.0469 83.6387 35.1543 83.8535 35.3691C84.0684 35.5775 84.1758 35.8346 84.1758 36.1406C84.1758 36.4271 84.0684 36.681 83.8535 36.9023C83.6452 37.1172 83.3945 37.2246 83.1016 37.2246C82.8086 37.2246 82.5547 37.1204 82.3398 36.9121C82.1315 36.6973 82.0273 36.4401 82.0273 36.1406ZM96.0059 24.9395H90.7812V28.8945H95.5957V31.1797H90.7812V37H87.998V22.625H96.0059V24.9395ZM99.4473 27.3906C99.9095 27.1237 100.508 26.9089 101.244 26.7461C101.98 26.5768 102.641 26.4922 103.227 26.4922C106 26.4922 107.387 27.8984 107.387 30.7109V37H104.789V35.4863H104.74C104.05 36.6647 103.025 37.2539 101.664 37.2539C100.674 37.2539 99.89 36.9772 99.3105 36.4238C98.7311 35.8639 98.4414 35.1152 98.4414 34.1777C98.4414 32.2181 99.6068 31.082 101.938 30.7695L104.799 30.3789C104.799 29.0703 104.161 28.416 102.885 28.416C101.667 28.416 100.521 28.7969 99.4473 29.5586V27.3906ZM102.758 32.3125C101.586 32.4622 101 32.9863 101 33.8848C101 34.2884 101.14 34.6172 101.42 34.8711C101.7 35.125 102.077 35.252 102.553 35.252C103.204 35.252 103.741 35.0241 104.164 34.5684C104.587 34.1061 104.799 33.5267 104.799 32.8301V32.0488L102.758 32.3125ZM120.73 37H118.016V35.4863H117.967C117.238 36.6647 116.147 37.2539 114.695 37.2539C113.406 37.2539 112.374 36.7917 111.6 35.8672C110.825 34.9427 110.438 33.6862 110.438 32.0977C110.438 30.4115 110.87 29.0573 111.736 28.0352C112.602 27.0065 113.729 26.4922 115.115 26.4922C116.463 26.4922 117.413 26.9902 117.967 27.9863H118.016V21.8145H120.73V37ZM118.055 31.1309C118.055 30.4082 117.833 29.8092 117.391 29.334C116.948 28.8522 116.391 28.6113 115.721 28.6113C114.939 28.6113 114.321 28.9173 113.865 29.5293C113.416 30.1413 113.191 30.9714 113.191 32.0195C113.191 33.0026 113.41 33.7676 113.846 34.3145C114.282 34.8548 114.871 35.125 115.613 35.125C116.329 35.125 116.915 34.8418 117.371 34.2754C117.827 33.709 118.055 32.9863 118.055 32.1074V31.1309ZM124.826 27.3906C125.288 27.1237 125.887 26.9089 126.623 26.7461C127.359 26.5768 128.02 26.4922 128.605 26.4922C131.379 26.4922 132.766 27.8984 132.766 30.7109V37H130.168V35.4863H130.119C129.429 36.6647 128.404 37.2539 127.043 37.2539C126.053 37.2539 125.269 36.9772 124.689 36.4238C124.11 35.8639 123.82 35.1152 123.82 34.1777C123.82 32.2181 124.986 31.082 127.316 30.7695L130.178 30.3789C130.178 29.0703 129.54 28.416 128.264 28.416C127.046 28.416 125.9 28.7969 124.826 29.5586V27.3906ZM128.137 32.3125C126.965 32.4622 126.379 32.9863 126.379 33.8848C126.379 34.2884 126.519 34.6172 126.799 34.8711C127.079 35.125 127.456 35.252 127.932 35.252C128.583 35.252 129.12 35.0241 129.543 34.5684C129.966 34.1061 130.178 33.5267 130.178 32.8301V32.0488L128.137 32.3125ZM145.377 32.6348H138.521C138.632 34.3796 139.622 35.252 141.49 35.252C142.63 35.252 143.645 34.9525 144.537 34.3535V36.4238C143.587 36.9772 142.366 37.2539 140.875 37.2539C139.28 37.2539 138.036 36.7917 137.145 35.8672C136.259 34.9427 135.816 33.6504 135.816 31.9902C135.816 30.3626 136.292 29.041 137.242 28.0254C138.199 27.0033 139.394 26.4922 140.826 26.4922C142.258 26.4922 143.375 26.9316 144.176 27.8105C144.977 28.6895 145.377 29.8971 145.377 31.4336V32.6348ZM142.809 30.8477C142.809 29.2201 142.138 28.4062 140.797 28.4062C140.237 28.4062 139.742 28.6276 139.312 29.0703C138.889 29.513 138.626 30.1055 138.521 30.8477H142.809ZM148.184 23.3574C148.184 22.9408 148.33 22.5924 148.623 22.3125C148.923 22.0326 149.307 21.8926 149.775 21.8926C150.231 21.8926 150.612 22.0326 150.918 22.3125C151.224 22.5859 151.377 22.9342 151.377 23.3574C151.377 23.7806 151.224 24.1322 150.918 24.4121C150.618 24.6921 150.238 24.832 149.775 24.832C149.313 24.832 148.932 24.6888 148.633 24.4023C148.333 24.1159 148.184 23.7676 148.184 23.3574ZM148.398 37V26.7363H151.113V37H148.398Z" fill="black"/>
</svg>
